<?xml version="1.0" standalone="no"?>
<!DOCTYPE svg PUBLIC "-//W3C//DTD SVG 20010904//EN"
 "http://www.w3.org/TR/2001/REC-SVG-20010904/DTD/svg10.dtd">
<svg version="1.0" xmlns="http://www.w3.org/2000/svg"
 width="2083.000000pt" height="2083.000000pt" viewBox="0 0 2083.000000 2083.000000"
 preserveAspectRatio="xMidYMid meet">
<metadata>
Created by potrace 1.11, written by Peter Selinger 2001-2013
</metadata>
<g transform="translate(0.000000,2083.000000) scale(0.100000,-0.100000)"
fill="#000000" stroke="none">
<path d="M10590 19713 c-108 -13 -108 -13 -164 -71 -31 -31 -56 -61 -56 -68 0
-6 -13 -27 -30 -45 -16 -19 -30 -39 -30 -46 0 -7 -13 -27 -29 -45 -15 -18 -32
-44 -36 -58 -4 -14 -18 -36 -31 -49 -13 -12 -26 -33 -30 -45 -4 -11 -20 -34
-35 -50 -16 -17 -29 -37 -29 -47 0 -9 -13 -32 -30 -50 -16 -19 -30 -40 -30
-46 0 -7 -16 -30 -35 -50 -19 -20 -35 -43 -35 -50 0 -8 -27 -41 -60 -75 -33
-34 -60 -68 -60 -76 0 -8 -11 -26 -25 -40 -58 -64 -85 -98 -91 -116 -4 -11
-19 -34 -35 -50 -16 -17 -29 -38 -29 -46 0 -8 -14 -28 -30 -44 -17 -16 -30
-34 -30 -40 0 -6 -19 -27 -42 -46 -71 -60 -86 -81 -93 -129 -6 -41 -15 -54
-86 -121 -43 -41 -79 -81 -79 -89 0 -7 -16 -29 -35 -48 -19 -19 -35 -42 -35
-51 0 -10 -27 -41 -60 -71 -33 -29 -60 -61 -60 -70 0 -10 -9 -29 -21 -42 -12
-13 -29 -34 -38 -45 -9 -12 -32 -29 -51 -39 -41 -21 -67 -51 -75 -85 -3 -14
-19 -38 -35 -54 -17 -15 -30 -33 -30 -40 0 -7 -23 -34 -52 -61 -28 -28 -57
-65 -65 -82 -7 -18 -18 -33 -23 -33 -5 0 -21 -21 -34 -47 -13 -27 -47 -70 -75
-96 -28 -27 -51 -57 -51 -67 0 -10 -11 -27 -25 -38 -14 -11 -32 -35 -39 -54
-8 -18 -31 -46 -52 -63 -55 -44 -74 -67 -74 -86 0 -9 -15 -29 -32 -44 -60 -48
-88 -78 -88 -95 0 -9 -38 -56 -85 -104 -47 -48 -85 -93 -85 -100 0 -7 -10 -21
-22 -33 -31 -27 -87 -92 -107 -123 -8 -14 -18 -27 -22 -30 -4 -3 -17 -21 -30
-40 -39 -57 -64 -84 -163 -180 -20 -19 -36 -41 -36 -49 0 -8 -11 -29 -25 -47
-14 -18 -25 -36 -25 -41 0 -4 -18 -25 -40 -47 -22 -21 -40 -44 -40 -50 0 -6
-27 -38 -60 -70 -33 -32 -60 -66 -60 -75 0 -9 -16 -30 -35 -46 -64 -54 -85
-78 -85 -97 0 -10 -7 -21 -15 -24 -8 -3 -25 -28 -39 -55 -22 -44 -79 -108 -97
-109 -4 0 -16 -19 -27 -42 -11 -24 -32 -54 -46 -67 -14 -14 -26 -28 -26 -33 0
-8 -20 -33 -77 -97 -67 -76 -93 -109 -93 -118 0 -5 -16 -23 -35 -42 -19 -18
-35 -39 -35 -47 0 -8 -13 -29 -30 -47 -16 -18 -30 -37 -30 -43 0 -10 -22 -38
-89 -113 -17 -19 -31 -39 -31 -45 0 -6 -11 -21 -24 -33 -13 -13 -31 -37 -40
-55 -8 -18 -27 -44 -41 -57 -14 -13 -25 -32 -25 -43 0 -11 -15 -33 -32 -50
-18 -16 -45 -41 -60 -54 -16 -15 -28 -36 -28 -50 0 -13 -5 -24 -11 -24 -16 0
-48 -42 -49 -63 0 -9 -17 -33 -37 -53 -122 -114 -139 -133 -151 -180 -9 -34
-28 -62 -67 -102 -30 -31 -55 -63 -55 -71 -1 -30 -38 -96 -79 -141 -22 -24
-41 -50 -41 -57 0 -6 -8 -18 -18 -25 -9 -7 -26 -26 -36 -43 -11 -16 -28 -38
-38 -49 -10 -11 -18 -24 -18 -28 0 -5 -11 -20 -25 -34 -14 -14 -32 -39 -41
-56 -9 -17 -27 -43 -40 -57 -14 -14 -27 -37 -31 -51 -3 -13 -17 -36 -30 -50
-12 -13 -23 -30 -23 -36 0 -6 -13 -27 -30 -45 -16 -19 -32 -44 -35 -57 -3 -12
-19 -37 -35 -54 -26 -27 -31 -37 -30 -63 0 -3 -10 -17 -24 -31 -13 -14 -29
-45 -37 -68 -7 -22 -24 -52 -37 -66 -13 -13 -26 -36 -29 -51 -3 -15 -18 -40
-34 -55 -16 -15 -29 -35 -29 -43 0 -9 -13 -29 -30 -44 -16 -16 -30 -37 -30
-46 0 -10 -13 -34 -30 -52 -16 -19 -30 -42 -30 -51 0 -10 -9 -27 -21 -39 -11
-11 -27 -37 -35 -56 -9 -19 -26 -47 -40 -61 -13 -15 -24 -34 -24 -42 0 -9 -13
-31 -30 -50 -16 -19 -29 -43 -30 -53 0 -18 -52 -101 -94 -151 -13 -16 -27 -47
-30 -70 -4 -25 -18 -55 -36 -76 -16 -18 -32 -52 -36 -74 -3 -21 -17 -51 -30
-65 -13 -14 -24 -30 -24 -35 0 -6 -12 -22 -26 -37 -18 -19 -29 -46 -37 -96 -8
-45 -20 -77 -34 -92 -12 -13 -25 -44 -29 -69 -4 -27 -17 -57 -30 -71 -13 -14
-26 -44 -30 -69 -3 -23 -12 -48 -19 -55 -18 -19 -36 -56 -41 -85 -3 -15 -18
-46 -34 -69 -17 -23 -30 -46 -30 -52 0 -6 -13 -37 -30 -68 -16 -32 -31 -72
-34 -90 -2 -17 -13 -41 -24 -53 -21 -22 -42 -90 -42 -134 0 -13 -11 -37 -24
-53 -13 -16 -28 -47 -31 -68 -4 -22 -14 -47 -21 -55 -21 -25 -44 -87 -44 -119
0 -17 -11 -42 -27 -61 -23 -27 -27 -44 -31 -113 -4 -64 -10 -88 -27 -112 -18
-24 -36 -79 -37 -115 0 -3 -10 -18 -21 -35 -12 -16 -23 -34 -24 -40 -16 -63
-22 -112 -23 -173 0 -57 -4 -79 -20 -100 -11 -15 -23 -49 -26 -77 -4 -27 -14
-58 -23 -69 -14 -15 -17 -60 -21 -310 -5 -272 -3 -1736 3 -2001 2 -128 8 -147
57 -180 25 -17 29 -28 40 -106 9 -67 17 -94 35 -113 12 -13 25 -44 29 -68 4
-25 17 -55 30 -69 16 -17 25 -43 30 -80 5 -37 15 -64 30 -80 13 -14 26 -44 30
-71 4 -28 16 -54 30 -67 17 -16 26 -39 30 -75 5 -38 15 -60 36 -83 17 -18 30
-40 30 -50 1 -10 14 -34 30 -53 17 -19 30 -41 30 -49 0 -8 12 -29 26 -48 14
-19 27 -40 28 -46 11 -49 23 -76 48 -105 15 -18 28 -41 28 -51 0 -10 13 -31
30 -47 16 -16 30 -36 30 -46 0 -9 13 -29 30 -45 17 -15 30 -35 30 -44 0 -9 16
-32 35 -52 19 -20 35 -42 35 -50 0 -8 11 -25 24 -39 14 -13 27 -35 31 -49 6
-23 35 -60 101 -130 13 -14 24 -30 24 -35 0 -12 37 -50 85 -89 20 -16 44 -43
52 -58 8 -15 22 -36 31 -46 9 -10 24 -27 33 -37 9 -10 34 -34 57 -53 23 -19
42 -40 42 -46 0 -16 100 -112 175 -168 33 -25 72 -56 86 -69 14 -13 46 -41 72
-62 26 -21 47 -44 47 -50 0 -25 115 -123 154 -130 17 -4 42 -18 55 -31 13 -14
29 -25 36 -25 7 0 15 -3 17 -7 5 -14 106 -93 117 -93 5 0 14 -6 18 -14 4 -7
33 -30 63 -51 30 -21 64 -46 75 -56 11 -9 35 -20 54 -24 19 -4 39 -11 45 -16
34 -27 107 -79 112 -79 2 0 17 -11 31 -24 14 -13 42 -27 61 -31 19 -3 44 -15
55 -26 11 -10 26 -19 33 -19 7 0 14 -4 16 -8 7 -19 108 -81 142 -87 20 -4 36
-11 36 -16 0 -5 7 -9 15 -9 8 0 15 -4 15 -10 0 -5 6 -10 14 -10 7 0 24 -8 37
-19 13 -10 42 -24 63 -31 22 -7 49 -21 60 -31 11 -11 27 -19 36 -19 10 0 38
-11 64 -25 26 -14 55 -27 64 -28 10 -2 28 -10 42 -20 14 -9 56 -23 93 -31 37
-7 76 -21 85 -29 9 -8 35 -19 57 -23 22 -4 51 -15 65 -24 14 -9 43 -20 65 -24
22 -4 47 -13 55 -20 17 -15 96 -36 133 -36 14 0 30 -6 36 -14 6 -8 33 -19 59
-26 26 -6 56 -17 68 -25 12 -7 39 -17 60 -21 21 -4 59 -18 83 -31 28 -15 61
-23 91 -23 33 0 55 -6 73 -21 19 -14 47 -22 99 -26 53 -4 79 -11 95 -26 16
-14 41 -21 95 -25 54 -3 79 -10 95 -25 16 -14 41 -21 95 -24 40 -3 83 -11 95
-19 28 -18 64 -25 148 -31 40 -3 88 -13 113 -25 33 -15 71 -22 155 -26 62 -2
118 -10 126 -16 9 -7 95 -13 240 -16 345 -8 2551 -4 2594 5 20 4 40 11 43 16
3 5 62 9 132 9 123 1 204 13 233 36 8 6 47 14 88 17 50 4 80 12 93 24 15 13
44 20 115 24 74 5 100 11 123 28 20 14 44 21 73 21 64 0 103 10 126 31 13 12
35 19 63 19 24 0 65 11 94 24 28 13 71 27 95 31 24 4 58 13 74 20 17 8 53 16
80 20 28 3 61 14 75 23 14 10 52 24 85 31 33 8 69 19 80 26 11 8 36 16 56 19
36 5 69 17 99 35 8 5 37 14 65 20 27 7 54 19 58 27 5 8 23 14 45 14 46 0 112
18 132 35 8 8 35 18 58 24 24 5 51 16 60 24 9 8 36 18 58 22 23 3 51 15 62 25
11 10 37 22 58 26 41 7 94 33 94 46 0 4 5 8 11 8 6 0 22 9 35 19 14 11 42 22
63 26 22 4 47 15 57 26 9 10 21 19 27 19 5 0 22 11 38 24 15 13 46 27 68 31
21 3 47 15 57 26 9 10 22 19 29 19 7 0 20 9 29 19 10 11 35 22 55 26 21 3 49
17 64 31 14 13 30 24 34 24 5 0 19 10 33 23 14 12 37 28 53 36 15 8 27 18 27
22 0 5 23 18 50 30 28 12 50 25 50 30 0 5 10 9 23 9 12 0 40 16 62 36 38 34
95 76 137 100 17 10 59 44 121 97 11 9 28 17 37 17 9 0 25 9 35 20 10 11 24
20 31 20 17 0 127 81 198 145 13 11 40 34 61 50 48 37 85 77 85 90 0 10 14 23
94 90 20 17 60 52 89 79 28 26 67 62 85 79 17 16 32 34 32 40 0 5 41 50 90
100 50 49 90 95 90 102 0 6 11 18 25 25 14 7 25 16 25 20 0 3 18 26 40 50 22
25 40 49 40 55 0 11 70 75 82 75 5 0 18 20 29 45 11 24 33 59 49 77 17 18 30
39 30 48 0 8 14 28 30 44 17 16 30 37 30 46 0 9 10 26 23 37 34 32 67 74 86
108 9 17 26 41 39 55 21 22 42 76 42 110 0 8 11 25 24 37 13 13 26 40 30 64 4
23 16 53 26 67 11 13 25 43 31 66 6 22 15 43 19 46 18 12 49 81 56 126 4 26
15 57 25 68 18 19 39 75 39 106 0 8 11 25 24 37 22 21 36 62 36 104 0 10 10
30 23 45 25 28 35 55 36 98 1 18 12 42 28 58 26 27 28 35 31 139 3 60 8 109
12 109 4 0 15 19 25 42 9 24 26 53 38 66 19 21 22 38 27 160 3 75 5 497 4 937
-1 728 -3 804 -18 845 -10 25 -23 66 -31 92 -7 26 -22 59 -34 74 -17 21 -21
41 -21 94 0 89 -7 122 -35 154 -14 17 -25 45 -29 82 -4 38 -14 66 -30 84 -17
21 -24 45 -29 100 -4 51 -13 84 -31 115 -16 27 -26 59 -26 83 0 47 -16 98 -42
131 -10 13 -18 36 -18 50 0 44 -29 142 -50 168 -15 19 -20 42 -21 87 -1 75 -8
97 -36 130 -13 15 -23 36 -23 48 0 27 -38 108 -51 108 -5 0 -9 15 -10 33 -1
45 -11 72 -35 99 -11 13 -26 46 -34 73 -7 28 -21 59 -31 70 -9 11 -21 37 -24
58 -4 21 -18 53 -31 73 -13 19 -27 47 -30 62 -8 32 -33 74 -51 85 -7 4 -13 18
-13 30 0 12 -11 34 -25 49 -18 20 -25 39 -26 70 -1 75 -18 107 -97 181 -19 18
-32 42 -36 69 -4 24 -19 55 -36 75 -17 19 -30 41 -30 50 0 9 -11 31 -26 50
-14 18 -30 48 -36 66 -6 17 -19 41 -29 52 -9 11 -21 34 -25 50 -4 17 -20 46
-36 65 -15 19 -28 44 -28 55 0 11 -14 34 -30 52 -17 18 -30 38 -30 45 -1 7
-14 29 -30 48 -17 19 -30 46 -30 60 0 23 -33 89 -50 100 -4 3 -10 22 -13 42
-5 39 -42 108 -58 108 -5 0 -9 10 -9 23 0 12 -13 37 -30 55 -16 18 -30 41 -30
50 0 9 -14 32 -30 51 -17 18 -30 41 -30 50 0 9 -14 30 -30 48 -17 18 -30 38
-30 46 0 8 -9 22 -21 33 -11 10 -32 42 -45 71 -14 29 -30 53 -34 53 -5 0 -19
23 -31 50 -12 28 -30 55 -40 61 -11 5 -19 19 -19 31 0 11 -13 36 -30 55 -16
18 -30 42 -30 53 0 10 -13 31 -30 47 -16 15 -30 35 -30 43 0 8 -14 29 -30 47
-17 18 -30 41 -30 52 0 10 -13 32 -30 48 -16 15 -30 34 -30 42 0 7 -11 27 -26
43 -14 17 -28 43 -30 58 -3 15 -23 46 -45 69 -21 22 -39 44 -39 49 0 4 -11 20
-25 36 -14 16 -25 37 -25 46 0 10 -11 28 -24 41 -13 13 -31 42 -40 63 -9 22
-25 46 -36 53 -11 8 -20 20 -20 26 0 7 -13 27 -30 45 -16 18 -30 42 -30 52 0
10 -13 31 -30 46 -16 16 -32 40 -35 55 -3 14 -33 54 -65 87 -33 34 -60 68 -60
76 0 8 -13 27 -30 43 -16 15 -30 35 -30 43 0 8 -27 42 -60 75 -33 33 -60 69
-60 80 0 11 -11 33 -24 48 -14 16 -27 48 -31 75 -12 82 -51 135 -107 146 -34
7 -78 43 -78 66 0 8 -12 29 -28 45 -15 17 -34 43 -42 59 -8 15 -25 38 -37 50
-13 11 -23 28 -23 37 0 9 -16 31 -35 50 -19 19 -35 37 -35 41 0 7 -51 79 -88
123 -9 11 -24 35 -34 54 -9 18 -26 40 -38 48 -11 8 -20 20 -20 27 0 6 -27 40
-60 74 -33 34 -60 67 -60 75 0 7 -16 28 -35 47 -19 19 -35 39 -35 46 0 6 -7
17 -15 24 -9 7 -20 32 -26 56 -8 31 -23 53 -50 76 -81 68 -139 123 -139 133 0
5 -13 24 -29 41 -16 17 -36 45 -46 63 -9 18 -39 55 -66 81 -27 26 -49 51 -49
56 0 5 -20 32 -45 59 -25 28 -47 58 -51 68 -3 9 -9 17 -13 17 -4 0 -13 12 -20
26 -6 15 -23 35 -36 46 -14 11 -25 25 -25 32 0 7 -27 40 -60 74 -33 33 -60 65
-60 69 0 5 -12 21 -27 38 -36 39 -90 101 -133 154 -19 24 -50 59 -67 77 -18
19 -33 38 -33 43 0 4 -10 19 -22 33 -13 14 -30 34 -39 44 -8 11 -34 34 -57 53
-23 18 -42 41 -42 50 0 19 -10 30 -109 120 -39 36 -71 70 -71 76 0 5 -31 43
-70 82 -38 40 -70 77 -70 82 0 10 -79 90 -134 135 -20 16 -36 37 -36 45 0 18
-28 50 -89 100 -23 19 -41 41 -41 50 -1 18 -25 50 -56 71 -61 43 -124 106
-124 125 0 20 -57 85 -74 85 -7 0 -78 63 -142 126 -17 18 -40 46 -50 63 -10
17 -21 31 -25 31 -3 0 -18 11 -32 24 -14 13 -35 30 -45 38 -10 7 -36 38 -57
68 -21 30 -47 61 -57 68 -33 24 -83 75 -129 132 -24 30 -49 58 -56 63 -7 4
-18 13 -25 20 -7 7 -38 32 -68 57 -30 25 -60 49 -66 55 -6 5 -32 27 -58 49
-25 21 -46 43 -46 50 0 14 -81 98 -131 136 -17 14 -45 36 -61 50 -15 14 -44
39 -64 55 -20 17 -66 60 -101 97 -60 61 -70 67 -117 73 -63 8 -163 11 -196 8z"/>
</g>
</svg>
